<?xml version="1.0" encoding="UTF-8" standalone="no"?>
<!-- Created with Inkscape (http://www.inkscape.org/) -->

<svg
   version="1.1"
   id="svg228"
   width="1200"
   height="260"
   viewBox="0 0 1200 260"
   sodipodi:docname="full-logo.svg"
   inkscape:version="1.2.2 (b0a8486541, 2022-12-01)"
   xmlns:inkscape="http://www.inkscape.org/namespaces/inkscape"
   xmlns:sodipodi="http://sodipodi.sourceforge.net/DTD/sodipodi-0.dtd"
   xmlns="http://www.w3.org/2000/svg"
   xmlns:svg="http://www.w3.org/2000/svg">
  <sodipodi:namedview
     id="namedview266"
     pagecolor="#505050"
     bordercolor="#ffffff"
     borderopacity="1"
     inkscape:showpageshadow="0"
     inkscape:pageopacity="0"
     inkscape:pagecheckerboard="1"
     inkscape:deskcolor="#505050"
     showgrid="false"
     inkscape:zoom="0.29711539"
     inkscape:cx="982.78317"
     inkscape:cy="218.77023"
     inkscape:window-width="1600"
     inkscape:window-height="827"
     inkscape:window-x="0"
     inkscape:window-y="0"
     inkscape:window-maximized="1"
     inkscape:current-layer="text2459" />
  <defs
     id="defs232">
    <clipPath
       clipPathUnits="userSpaceOnUse"
       id="clipPath427">
      <g
         id="use429">
        <rect
           style="fill:none;fill-opacity:0.686957;stroke-width:0.192756"
           id="rect989"
           width="439.09384"
           height="349.61813"
           x="61.307442"
           y="96.103561" />
      </g>
    </clipPath>
  </defs>
  <g
     id="g2514"
     transform="translate(12.132078)">
    <path
       style="fill:#258cf4;fill-opacity:1;stroke-width:0.865702"
       d="M 115.3482,248.35952 C 37.583446,235.13541 -7.1204817,149.55572 26.625534,78.511861 58.55155,11.299546 142.68334,-10.55328 208.06112,31.384844 c 19.00632,12.192064 17.61303,32.146052 -2.24719,32.183216 -5.09438,0.0095 -5.64292,-0.213793 -15.58262,-6.344008 -62.34535,-38.450913 -142.647574,2.255196 -142.346198,72.156898 0.361205,83.7783 108.509978,119.39357 161.552518,53.20205 3.09235,-3.85895 5.38898,-5.85108 7.55204,-6.55078 9.96722,-3.22413 20.81244,-12.12005 24.85897,-20.39086 3.00286,-6.13764 3.27527,-5.87524 2.62048,2.52417 -4.50966,57.84725 -66.14759,100.90279 -129.12092,90.19399 z m 9.5564,-43.69914 C 58.41966,194.19295 33.999202,109.19549 86.78006,71.964742 c 2.59711,-1.831954 2.59711,-1.831954 0.26495,1.266859 -36.512334,48.515049 6.94533,116.407999 66.64694,104.121059 16.55961,-3.40806 38.68158,-18.44668 37.0337,-25.17567 -2.21379,-9.03988 -2.41258,-12.18746 -1.0626,-16.82419 7.50957,-25.79288 45.62743,-20.37896 45.57625,6.47324 -0.0219,11.47858 -10.55878,22.18298 -21.83589,22.18298 -2.60986,0 -3.36634,0.5111 -5.44554,3.67923 -16.66726,25.39606 -53.22191,41.66878 -83.05327,36.97213 z"
       id="path993" />
    <g
       aria-label="onnectED"
       id="text2459"
       style="font-style:italic;font-weight:bold;font-size:192px;-inkscape-font-specification:'sans-serif Bold Italic';fill:#258cf4;stroke-width:0.192756">
      <path
         d="m 365.61779,160.976 q 0,26.112 -13.824,40.32 -13.632,14.208 -37.248,14.208 -14.592,0 -26.112,-6.336 -11.328,-6.336 -17.856,-18.432 -6.528,-12.288 -6.528,-29.76 0,-26.112 13.632,-40.128 13.632,-14.016 37.44,-14.016 14.784,0 26.112,6.336 11.328,6.336 17.856,18.432 6.528,11.904 6.528,29.376 z m -72.384,0 q 0,15.552 4.992,23.616 5.184,7.872 16.704,7.872 11.328,0 16.32,-7.872 5.184,-8.064 5.184,-23.616 0,-15.552 -5.184,-23.232 -4.992,-7.872 -16.512,-7.872 -11.328,0 -16.512,7.872 -4.992,7.68 -4.992,23.232 z"
         style="font-style:normal;font-family:'Noto Sans';-inkscape-font-specification:'Noto Sans Bold'"
         id="path2516" />
      <path
         d="m 448.75369,106.832 q 16.896,0 27.072,9.216 10.176,9.024 10.176,29.184 v 68.352 h -28.608 v -61.248 q 0,-11.328 -4.032,-16.896 -4.032,-5.76 -12.864,-5.76 -13.056,0 -17.856,9.024 -4.8,8.832 -4.8,25.536 v 49.344 h -28.608 V 108.752 h 21.888 l 3.84,13.44 h 1.536 q 4.992,-8.064 13.632,-11.712 8.832,-3.648 18.624,-3.648 z"
         style="font-style:normal;font-family:'Noto Sans';-inkscape-font-specification:'Noto Sans Bold'"
         id="path2518" />
      <path
         d="m 574.89761,106.832 q 16.896,0 27.072,9.216 10.176,9.024 10.176,29.184 v 68.352 h -28.608 v -61.248 q 0,-11.328 -4.032,-16.896 -4.032,-5.76 -12.864,-5.76 -13.056,0 -17.856,9.024 -4.8,8.832 -4.8,25.536 v 49.344 h -28.608 V 108.752 h 21.888 l 3.84,13.44 h 1.536 q 4.992,-8.064 13.632,-11.712 8.832,-3.648 18.624,-3.648 z"
         style="font-style:normal;font-family:'Noto Sans';-inkscape-font-specification:'Noto Sans Bold'"
         id="path2520" />
      <path
         d="m 684.72153,106.832 q 21.696,0 34.368,12.48 12.672,12.288 12.672,35.136 v 13.824 h -67.584 q 0.384,12.096 7.104,19.008 6.912,6.912 19.008,6.912 10.176,0 18.432,-1.92 8.256,-2.112 17.088,-6.336 v 22.08 q -7.68,3.84 -16.32,5.568 -8.448,1.92 -20.544,1.92 -15.744,0 -27.84,-5.76 -12.096,-5.952 -19.008,-17.856 -6.912,-11.904 -6.912,-29.952 0,-18.432 6.144,-30.528 6.336,-12.288 17.472,-18.432 11.136,-6.144 25.92,-6.144 z m 0.192,20.352 q -8.256,0 -13.824,5.376 -5.376,5.376 -6.336,16.704 h 40.128 q -0.192,-9.6 -4.992,-15.744 -4.8,-6.336 -14.976,-6.336 z"
         style="font-style:normal;font-family:'Noto Sans';-inkscape-font-specification:'Noto Sans Bold'"
         id="path2522" />
      <path
         d="m 797.61746,215.504 q -23.424,0 -36.288,-12.864 -12.672,-13.056 -12.672,-40.896 0,-19.2 6.528,-31.296 6.528,-12.096 18.048,-17.856 11.712,-5.76 26.88,-5.76 10.752,0 18.624,2.112 8.064,2.112 14.016,4.992 l -8.448,22.08 q -6.72,-2.688 -12.672,-4.416 -5.76,-1.728 -11.52,-1.728 -22.272,0 -22.272,31.68 0,15.744 5.76,23.232 5.952,7.488 16.512,7.488 9.024,0 15.936,-2.304 6.912,-2.496 13.44,-6.72 v 24.384 q -6.528,4.224 -13.824,5.952 -7.104,1.92 -18.048,1.92 z"
         style="font-style:normal;font-family:'Noto Sans';-inkscape-font-specification:'Noto Sans Bold'"
         id="path2524" />
      <path
         d="m 897.84144,192.656 q 4.8,0 9.216,-0.96 4.416,-0.96 8.832,-2.304 v 21.312 q -4.608,1.92 -11.52,3.264 -6.72,1.536 -14.784,1.536 -9.408,0 -16.896,-3.072 -7.296,-3.072 -11.712,-10.56 -4.224,-7.68 -4.224,-21.12 v -50.496 h -13.632 V 118.16 l 15.744,-9.6 8.256,-22.08 h 18.24 v 22.272 h 29.376 v 21.504 h -29.376 v 50.496 q 0,5.952 3.456,9.024 3.456,2.88 9.024,2.88 z"
         style="font-style:normal;font-family:'Noto Sans';-inkscape-font-specification:'Noto Sans Bold'"
         id="path2526" />
      <path
         d="M 1018.2254,213.584 H 939.31345 V 76.496 h 78.91195 v 23.808 h -49.91995 v 30.144 h 46.46395 v 23.808 h -46.46395 v 35.328 h 49.91995 z"
         style="font-style:normal;font-family:'Noto Sans';-inkscape-font-specification:'Noto Sans Bold'"
         id="path2528" />
      <path
         d="m 1160.4973,143.696 q 0,34.752 -19.776,52.416 -19.584,17.472 -55.104,17.472 h -38.784 V 76.496 h 43.008 q 21.504,0 37.248,7.68 15.936,7.68 24.576,22.656 8.832,14.784 8.832,36.864 z m -30.144,0.768 q 0,-22.848 -9.984,-33.408 -9.984,-10.752 -28.992,-10.752 h -15.552 v 89.28 h 12.48 q 42.048,0 42.048,-45.12 z"
         style="font-style:normal;font-family:'Noto Sans';-inkscape-font-specification:'Noto Sans Bold'"
         id="path2530" />
    </g>
  </g>
</svg>
